<svg width="120" height="130" viewBox="0 0 120 130" fill="none" xmlns="http://www.w3.org/2000/svg">
<circle cx="60" cy="60" r="60" fill="url(#paint0_linear_112_67)"/>
<path d="M70.8759 96.5906C70.1921 96.5906 69.6372 97.1866 69.6372 97.921C69.6372 98.6554 70.1921 99.2514 70.8759 99.2514C71.5596 99.2514 72.1145 98.6554 72.1145 97.921C72.1145 97.1866 71.5596 96.5906 70.8759 96.5906Z" fill="#0696FF"/>
<path d="M36.1932 105.46C35.5095 105.46 34.9546 106.056 34.9546 106.79C34.9546 107.525 35.5095 108.121 36.1932 108.121C36.877 108.121 37.4319 107.525 37.4319 106.79C37.4319 106.056 36.877 105.46 36.1932 105.46Z" fill="#0696FF"/>
<path d="M46.8842 121.425C41.8083 121.425 37.5201 117.16 37.5201 112.112C37.5201 111.377 36.9457 110.782 36.2373 110.782C35.529 110.782 34.9546 111.377 34.9546 112.112C34.9546 118.603 40.4177 124.086 46.8842 124.086C47.5925 124.086 48.1669 123.49 48.1669 122.755C48.1669 122.021 47.5925 121.425 46.8842 121.425Z" fill="#0696FF"/>
<path fill-rule="evenodd" clip-rule="evenodd" d="M91.5157 67.2662H90.2726V63.3166C90.2726 62.5894 89.716 62 89.0295 62H84.0571C83.3707 62 82.814 62.5894 82.814 63.3166V67.2662H81.5709C80.8845 67.2662 80.3278 67.8556 80.3278 68.5828V76.877C80.3278 80.056 82.4666 82.7157 85.3002 83.3273V120.192C85.3002 121.911 84.5982 123.553 83.3239 124.816C82.0664 126.06 80.3854 126.774 78.7118 126.774C75.2022 126.774 72.1234 123.698 72.1234 120.192V103.604C72.1234 102.877 71.5667 102.288 70.8803 102.288C70.1939 102.288 69.6372 102.877 69.6372 103.604V120.192C69.6372 125.187 73.7929 129.407 78.7118 129.407C81.0088 129.407 83.3085 128.435 85.0219 126.739C86.8046 124.973 87.7864 122.648 87.7864 120.192V83.3273C90.6201 82.7157 92.7588 80.0561 92.7588 76.877V68.5828C92.7588 67.8556 92.2021 67.2662 91.5157 67.2662ZM85.3002 64.6331H87.7864V67.2662H85.3002V64.6331ZM86.5433 80.8267C88.5997 80.8267 90.2726 79.0549 90.2726 76.877V69.8993H89.0295H84.0571H82.814V76.877C82.814 79.0549 84.487 80.8267 86.5433 80.8267Z" fill="#0696FF"/>
<path fill-rule="evenodd" clip-rule="evenodd" d="M58.7254 62C52.5993 62 47.0631 66.4975 45.4616 72.6113C43.7952 72.9767 42.5369 74.5733 42.5369 76.4821V78.6475C39.2402 79.4762 36.2248 81.4124 33.9598 84.1756C31.4063 87.2909 30 91.2448 30 95.3087V112.292C30 116.849 31.7161 121.152 34.8321 124.41C37.9143 127.633 41.9474 129.407 46.1885 129.407C50.4295 129.407 54.4626 127.633 57.5448 124.41C60.6608 121.152 62.3769 116.849 62.3769 112.292V95.3087C62.3769 90.751 60.6607 86.4476 57.5446 83.1911C55.379 80.9271 52.7318 79.3723 49.84 78.6494V76.4821C49.84 74.9709 49.051 73.656 47.8955 72.992C49.3155 68.1554 53.7853 64.6331 58.7254 64.6331C64.7658 64.6331 69.68 69.9485 69.68 76.4821V92.677C69.68 93.4041 70.225 93.9935 70.8972 93.9935C71.5693 93.9935 72.1143 93.4041 72.1143 92.677V76.4821C72.1143 68.4967 66.1081 62 58.7254 62ZM44.9713 76.4821C44.9713 75.7561 45.5173 75.1655 46.1885 75.1655C46.8596 75.1655 47.4056 75.7561 47.4056 76.4821V78.2461C46.5965 78.1803 45.7797 78.1803 44.9713 78.2461V76.4821ZM46.1885 126.774C53.6439 126.774 59.9426 120.142 59.9426 112.292V96.6253H49.6306C49.1282 98.1576 47.7753 99.2584 46.1885 99.2584C44.6016 99.2584 43.2487 98.1576 42.7463 96.6253H32.4344V112.292C32.4344 120.142 38.733 126.774 46.1885 126.774ZM44.9713 95.3087V90.0425C44.9713 89.3166 45.5173 88.726 46.1885 88.726C46.5132 88.726 46.8188 88.863 47.0488 89.1119C47.2789 89.3607 47.4056 89.6911 47.4056 90.0425V95.3087C47.4056 96.0347 46.8596 96.6253 46.1885 96.6253C45.5173 96.6253 44.9713 96.0347 44.9713 95.3087ZM55.853 85.0847C53.7925 82.9308 51.2237 81.5275 48.424 81.0263C47.69 80.8937 46.9384 80.8267 46.1885 80.8267C45.4386 80.8267 44.6869 80.8937 43.9545 81.026C37.8034 82.1269 33.0702 87.5818 32.4936 93.9922H42.5369V90.0425C42.5369 87.8647 44.175 86.0929 46.1885 86.0929C47.1634 86.0929 48.0802 86.5038 48.7701 87.2499C49.4601 87.9962 49.84 88.988 49.84 90.0425V93.9922H59.8843C59.5914 90.6468 58.1864 87.5231 55.853 85.0847Z" fill="#0696FF"/>
<defs>
<linearGradient id="paint0_linear_112_67" x1="24.6406" y1="0" x2="24.6406" y2="70.7187" gradientUnits="userSpaceOnUse">
<stop stop-color="#EEF8FF"/>
<stop offset="1" stop-color="white"/>
</linearGradient>
</defs>
</svg>
