<svg width="120" height="130" viewBox="0 0 120 130" fill="none" xmlns="http://www.w3.org/2000/svg">
<circle opacity="0.1425" cx="60" cy="60" r="60" fill="url(#paint0_linear_112_50)"/>
<path d="M60.5 68C59.672 68 59 68.672 59 69.5C59 70.328 59.672 71 60.5 71C61.328 71 62 70.328 62 69.5C62 68.672 61.328 68 60.5 68Z" fill="#0696FF"/>
<path d="M83.2982 80.5109L66.0269 71.1674C65.3686 70.8112 64.5379 71.0421 64.172 71.6832C63.806 72.3244 64.0433 73.1329 64.7018 73.4891L81.9731 82.8325C82.1829 82.9461 82.4103 83 82.6345 83C83.1138 83 83.5787 82.7537 83.828 82.3168C84.194 81.6756 83.9567 80.8672 83.2982 80.5109Z" fill="#0696FF"/>
<path fill-rule="evenodd" clip-rule="evenodd" d="M94.3612 94.3536C94.7637 94.6028 95.0063 95.0449 94.9998 95.5183C94.9934 95.9917 94.7389 96.427 94.3297 96.665L84.4124 102.43L94.3313 108.217C94.7455 108.458 95.0003 108.902 94.9998 109.382C94.9994 109.862 94.7441 110.305 94.3294 110.546L61.1771 129.818C60.9678 129.939 60.7339 130 60.4999 130C60.266 130 60.0322 129.939 59.8227 129.818L26.6705 110.546C26.2557 110.305 26.0004 109.862 26 109.382C25.9996 108.902 26.2543 108.458 26.6686 108.217L36.5876 102.431L26.6703 96.6651C26.2611 96.4272 26.0066 95.9919 26.0001 95.5184C25.9937 95.0449 26.2363 94.6028 26.6388 94.3538L36.3969 88.3196L26.6811 82.7903C26.2619 82.5518 26.0023 82.1075 26 81.6253C25.9979 81.1431 26.2535 80.6964 26.6705 80.454L59.8227 61.1825C60.2416 60.9392 60.7585 60.9392 61.1773 61.1825L94.3295 80.454C94.7465 80.6964 95.0023 81.143 95 81.6253C94.9977 82.1075 94.738 82.5518 94.3189 82.7903L84.6031 88.3196L94.3612 94.3536ZM60.4999 63.9064L30.0507 81.6067L39.6365 87.0621L60.4999 98.9357L90.9492 81.6067L60.4999 63.9064ZM90.9741 109.379L60.4999 127.094L30.0257 109.379L39.2667 103.988L59.8227 115.937C60.0322 116.058 60.266 116.119 60.4999 116.119C60.7339 116.119 60.9678 116.058 61.1771 115.937L81.7332 103.988L90.9741 109.379ZM29.9678 95.4643L60.4999 113.213L91.0322 95.4643L81.9342 89.8385L61.1665 101.658C60.9599 101.775 60.7298 101.834 60.4999 101.834C60.27 101.834 60.04 101.775 59.8334 101.658L39.0656 89.8385L29.9678 95.4643Z" fill="#0696FF"/>
<defs>
<linearGradient id="paint0_linear_112_50" x1="24.6406" y1="0" x2="24.6406" y2="70.7187" gradientUnits="userSpaceOnUse">
<stop stop-color="#EEF8FF"/>
<stop offset="1" stop-color="#0696FF" stop-opacity="0.01"/>
</linearGradient>
</defs>
</svg>
