<svg width="120" height="129" viewBox="0 0 120 129" fill="none" xmlns="http://www.w3.org/2000/svg">
<circle opacity="0.1425" cx="60" cy="60" r="60" fill="url(#paint0_linear_112_67)"/>
<path d="M73 118C72.448 118 72 118.448 72 119C72 119.552 72.448 120 73 120C73.552 120 74 119.552 74 119C74 118.448 73.552 118 73 118Z" fill="white"/>
<path fill-rule="evenodd" clip-rule="evenodd" d="M92.1306 86.4616C91.4055 85.5799 90.3341 85.0742 89.1913 85.0742H82.4628V67.8086C82.4628 65.7085 80.7543 64 78.6542 64H42.3457C40.2456 64 38.5371 65.7085 38.5371 67.8086V85.0742H31.8086C30.6658 85.0742 29.5944 85.5799 28.8698 86.4609C28.3089 87.1419 28 88.0021 28 88.8828V125.191C28 126.208 28.3962 127.165 29.1158 127.884L29.1232 127.891C29.1263 127.894 29.1298 127.897 29.1329 127.9C29.8505 128.609 30.7996 129 31.8086 129H89.1913C90.1949 129 91.1389 128.614 91.8551 127.912L91.8689 127.899L91.8758 127.892L91.8842 127.884C92.6037 127.165 93 126.208 93 125.191V88.8828C92.9999 88.0021 92.691 87.1419 92.1306 86.4616ZM82.4628 87.6133H88.6427L82.4628 92.5761V87.6133ZM42.3457 66.5391C41.6457 66.5391 41.0761 67.1086 41.0761 67.8086V94.6153L54.2128 105.165L59.6872 100.603C60.1581 100.21 60.8418 100.21 61.3127 100.603L66.787 105.165L79.9237 94.6151V67.8086C79.9237 67.1086 79.3542 66.5391 78.6542 66.5391H42.3457ZM38.5371 87.6133V92.5761L32.3571 87.6133H38.5371ZM30.5391 89.4097V124.896L52.223 106.823L30.5391 89.4097ZM32.6269 126.461L55.0374 107.783L60.4999 103.231L65.9625 107.783L88.3729 126.461H32.6269ZM68.777 106.823L90.4608 124.896V89.4097L68.777 106.823Z" fill="white"/>
<path d="M66.6339 79.366C66.1458 78.878 65.3543 78.878 64.866 79.366L58.2501 85.9821L54.134 81.866C53.6458 81.378 52.8543 81.378 52.3661 81.866C51.878 82.3541 51.878 83.1456 52.3661 83.6339L57.3662 88.6339C57.6103 88.8779 57.9302 89 58.2501 89C58.5699 89 58.8899 88.8779 59.1339 88.6339L66.6339 81.1339C67.122 80.6459 67.122 79.8542 66.6339 79.366Z" fill="white"/>
<path d="M68.7222 118H48.2778C47.5721 118 47 118.448 47 119C47 119.552 47.5721 120 48.2778 120H68.7222C69.4279 120 70 119.552 70 119C70 118.448 69.4279 118 68.7222 118Z" fill="white"/>
<path fill-rule="evenodd" clip-rule="evenodd" d="M47 84C47 76.2804 53.2804 70 61 70C68.7196 70 75 76.2804 75 84C75 91.7196 68.7196 98 61 98C53.2804 98 47 91.7196 47 84ZM49.5455 84C49.5455 90.316 54.684 95.4545 61 95.4545C67.316 95.4545 72.4545 90.316 72.4545 84C72.4545 77.684 67.316 72.5455 61 72.5455C54.684 72.5455 49.5455 77.684 49.5455 84Z" fill="white"/>
<defs>
<linearGradient id="paint0_linear_112_67" x1="24.6406" y1="0" x2="24.6406" y2="70.7187" gradientUnits="userSpaceOnUse">
<stop stop-color="#EEF8FF"/>
<stop offset="1" stop-color="white" stop-opacity="0.01"/>
</linearGradient>
</defs>
</svg>
