<svg width="120" height="127" viewBox="0 0 120 127" fill="none" xmlns="http://www.w3.org/2000/svg">
<circle opacity="0.1425" cx="60" cy="60" r="60" fill="url(#paint0_linear_111_25)"/>
<path d="M82.5 79C81.672 79 81 79.672 81 80.5C81 81.328 81.672 82 82.5 82C83.328 82 84 81.328 84 80.5C84 79.672 83.328 79 82.5 79Z" fill="white"/>
<path fill-rule="evenodd" clip-rule="evenodd" d="M90.8984 70.3913H38.5343C37.8991 67.3189 35.1371 65 31.8359 65C28.0666 65 25 68.0232 25 71.7391V120.261C25 120.632 25.0313 121.01 25.093 121.383C25.6217 124.585 28.6463 127 32.1285 127H88.1641C90.4257 127 92.2656 125.186 92.2656 122.957V121.377C93.8569 120.82 95 119.322 95 117.565V74.4348C95 72.2052 93.16 70.3913 90.8984 70.3913ZM27.7344 71.7391C27.7344 69.5096 29.5743 67.6957 31.8359 67.6957C34.0975 67.6957 35.9375 69.5096 35.9375 71.7391V114.873C34.7941 114.025 33.3736 113.522 31.8359 113.522C30.2983 113.522 28.8778 114.025 27.7344 114.873V71.7391ZM88.1641 124.304C88.9179 124.304 89.5312 123.7 89.5312 122.957V121.609H82.2852H71.3477H59.5898H48.6523H37.3047C36.5496 121.609 35.9375 121.005 35.9375 120.261C35.9375 118.031 34.0975 116.217 31.8359 116.217C29.5743 116.217 27.7344 118.031 27.7344 120.261C27.7344 120.488 27.7537 120.719 27.7918 120.95C28.1075 122.862 29.9719 124.304 32.1285 124.304H88.1641ZM54.1211 102.272C55.5294 102.272 56.9371 101.951 58.2227 101.312V118.913H50.0195V101.312C51.3051 101.951 52.7128 102.272 54.1211 102.272ZM54.1211 90.9268L50.3501 98.3621C52.5844 99.9832 55.6578 99.9832 57.8921 98.3621L54.1211 90.9268ZM79.5508 94.6522H80.918V97.3478H76.8164C76.0613 97.3478 75.4492 97.9514 75.4492 98.6957C75.4492 99.4399 76.0613 100.043 76.8164 100.043H80.918V102.739H79.5508C78.7957 102.739 78.1836 103.343 78.1836 104.087C78.1836 104.831 78.7957 105.435 79.5508 105.435H80.918V108.13H76.8164C76.0613 108.13 75.4492 108.734 75.4492 109.478C75.4492 110.223 76.0613 110.826 76.8164 110.826H80.918V113.522H79.5508C78.7957 113.522 78.1836 114.125 78.1836 114.87C78.1836 115.614 78.7957 116.217 79.5508 116.217H80.918V118.913H72.7148V89.2609H80.918V91.9565H79.5508C78.7957 91.9565 78.1836 92.5601 78.1836 93.3043C78.1836 94.0486 78.7957 94.6522 79.5508 94.6522ZM83.6523 118.913H90.8984C91.6523 118.913 92.2656 118.308 92.2656 117.565H92.2655V74.4348C92.2655 73.6916 91.6522 73.087 90.8983 73.087H38.6717V118.913H47.285V98.6965C47.285 98.6477 47.2883 98.5991 47.2936 98.5506C47.2945 98.5422 47.2959 98.5338 47.2972 98.5254C47.298 98.52 47.2989 98.5147 47.2996 98.5092C47.3046 98.4745 47.3104 98.4401 47.3181 98.4057C47.3215 98.3906 47.3254 98.3758 47.3292 98.361C47.3379 98.3272 47.348 98.2939 47.3595 98.2607C47.3642 98.2474 47.3686 98.2342 47.3736 98.2209C47.3876 98.1844 47.4034 98.1484 47.4206 98.113C47.4221 98.1099 47.4234 98.1068 47.4247 98.1036C47.4262 98.1 47.4276 98.0964 47.4294 98.0929L47.4392 98.0736L47.4427 98.0669L52.8983 87.3103C53.1299 86.8537 53.6032 86.5652 54.1211 86.5652C54.639 86.5652 55.1123 86.8537 55.3438 87.3102L60.7994 98.0668C60.7999 98.0678 60.8004 98.0688 60.8009 98.0698C60.8015 98.0711 60.8021 98.0723 60.8028 98.0735L60.8127 98.0928C60.8144 98.0963 60.8159 98.1 60.8174 98.1036C60.8187 98.1067 60.82 98.1098 60.8214 98.1129C60.8386 98.1483 60.8545 98.1843 60.8684 98.2208C60.871 98.2276 60.8734 98.2343 60.8758 98.2411C60.8781 98.2476 60.8803 98.2541 60.8825 98.2606C60.894 98.2937 60.9041 98.3272 60.9129 98.3609C60.9167 98.3758 60.9205 98.3906 60.9239 98.4056C60.9316 98.44 60.9375 98.4745 60.9424 98.5091C60.9443 98.5229 60.9469 98.5366 60.9484 98.5505C60.9538 98.599 60.957 98.6477 60.957 98.6963V118.913H69.9805V87.913C69.9805 87.1688 70.5926 86.5652 71.3477 86.5652H82.2852C83.0403 86.5652 83.6523 87.1688 83.6523 87.913V118.913Z" fill="white"/>
<path d="M76.6283 79H48.3717C47.6141 79 47 79.6717 47 80.5C47 81.3283 47.6141 82 48.3717 82H76.6283C77.3859 82 78 81.3283 78 80.5C78 79.6717 77.3859 79 76.6283 79Z" fill="white"/>
<defs>
<linearGradient id="paint0_linear_111_25" x1="24.6406" y1="0" x2="24.6406" y2="70.7187" gradientUnits="userSpaceOnUse">
<stop stop-color="#EEF8FF"/>
<stop offset="1" stop-color="white" stop-opacity="0.01"/>
</linearGradient>
</defs>
</svg>
